<svg xmlns="http://www.w3.org/2000/svg" width="10" height="8" viewBox="0 0 10 8">
  <metadata><?xpacket begin="﻿" id="W5M0MpCehiHzreSzNTczkc9d"?>
<x:xmpmeta xmlns:x="adobe:ns:meta/" x:xmptk="Adobe XMP Core 5.6-c140 79.160451, 2017/05/06-01:08:21        ">
   <rdf:RDF xmlns:rdf="http://www.w3.org/1999/02/22-rdf-syntax-ns#">
      <rdf:Description rdf:about=""/>
   </rdf:RDF>
</x:xmpmeta>
                                                                                                    
                                                                                                    
                                                                                                    
                                                                                                    
                                                                                                    
                                                                                                    
                                                                                                    
                                                                                                    
                                                                                                    
                                                                                                    
                                                                                                    
                                                                                                    
                                                                                                    
                                                                                                    
                                                                                                    
                                                                                                    
                                                                                                    
                                                                                                    
                                                                                                    
                                                                                                    
                           
<?xpacket end="w"?></metadata>
<defs>
    <style>
      .cls-1 {
        fill: #8d8d8d;
        fill-rule: evenodd;
      }
    </style>
  </defs>
  <path id="arrow" class="cls-1" d="M1310.84,6130.62l-3.61-3.47a0.582,0.582,0,0,0-.78,0l-0.32.32a0.485,0.485,0,0,0-.16.37,0.507,0.507,0,0,0,.16.38l2.1,2.03h-6.69a0.519,0.519,0,0,0-.54.51v0.45a0.544,0.544,0,0,0,.54.54h6.72l-2.13,2.04a0.508,0.508,0,0,0,0,.74l0.32,0.32a0.61,0.61,0,0,0,.39.15,0.57,0.57,0,0,0,.39-0.16l3.61-3.47a0.523,0.523,0,0,0,.16-0.37,0.546,0.546,0,0,0-.16-0.38" transform="translate(-1301 -6127)"/>
</svg>
